<?xml version="1.0" encoding="UTF-8" standalone="no"?>
<svg
   xmlns:dc="http://purl.org/dc/elements/1.1/"
   xmlns:cc="http://creativecommons.org/ns#"
   xmlns:rdf="http://www.w3.org/1999/02/22-rdf-syntax-ns#"
   xmlns:svg="http://www.w3.org/2000/svg"
   xmlns="http://www.w3.org/2000/svg"
   version="1.1"
   id="svg2"
   viewBox="0 0 99.999997 89.167799"
   height="25.165134mm"
   width="28.222221mm">
  <g
     transform="translate(6935.9329,-2111.5131)"
     id="layer1">
    <flowRoot
       style="font-style:normal;font-weight:normal;font-size:70px;line-height:125%;font-family:sans-serif;letter-spacing:0px;word-spacing:0px;fill:#000000;fill-opacity:1;stroke:none;stroke-width:1px;stroke-linecap:butt;stroke-linejoin:miter;stroke-opacity:1"
       id="flowRoot4157"
       xml:space="preserve"><flowRegion
         id="flowRegion4159"><rect
           y="-6812.6377"
           x="-3920"
           height="125"
           width="150"
           id="rect4161" /></flowRegion><flowPara
         id="flowPara4163" /></flowRoot>    <text
       id="text3976"
       y="1992.3622"
       x="-6977"
       style="font-style:normal;font-variant:normal;font-weight:normal;font-stretch:normal;font-size:31.25px;line-height:125%;font-family:Garamond;-inkscape-font-specification:Garamond;text-align:center;letter-spacing:0px;word-spacing:0px;text-anchor:middle;fill:#000000;fill-opacity:1;stroke:none;stroke-width:1px;stroke-linecap:butt;stroke-linejoin:miter;stroke-opacity:1"
       xml:space="preserve"><tspan
         y="1992.3622"
         x="-6977"
         id="tspan3978" /></text>
    <path
       style="font-style:normal;font-variant:normal;font-weight:normal;font-stretch:normal;font-size:medium;line-height:125%;font-family:Garamond;-inkscape-font-specification:Garamond;text-align:center;letter-spacing:0px;word-spacing:0px;text-anchor:middle;fill:#000000;fill-opacity:1;stroke:none;stroke-width:1px;stroke-linecap:butt;stroke-linejoin:miter;stroke-opacity:1;marker-end:"
       d="m -6884.9668,2111.5131 c -0.5725,1.0059 -1.2732,2.0564 -2.0999,3.1459 l -7.2491,10.121 -17.072,26.3325 c -3.4347,5.112 -5.5038,7.8839 -6.2033,8.3028 -0.6993,0.4188 -4.7714,1.298 -12.2127,2.6387 -0.379,0.6705 -0.5713,1.1468 -0.5713,1.4401 l 0.1,0.5636 c 5.1388,-0.042 9.2803,-0.1738 13.4757,-0.3132 l -0.066,9.59 0.3954,19.1722 c 0.082,1.5504 -0.4283,2.6379 -1.5364,3.2665 -1.1092,0.5867 -4.3861,1.2572 -9.848,2.0114 -3.4134,0.4609 -5.9764,0.8651 -7.6831,1.1988 -0.2594,0.2923 -0.3954,0.5379 -0.3954,0.748 0,0.2512 0.2059,0.5705 0.6356,0.9495 3.328,-0.042 7.6025,-0.1438 12.8083,-0.3131 7.0836,-0.2926 11.7744,-0.4423 14.0792,-0.4423 1.1093,0 28.503,0.1038 41.0477,0.3129 0.4609,0 0.893,-0.082 1.3437,-0.1118 1.0578,0.042 3.3254,0.1198 3.5157,0.1118 5.1923,-0.2101 8.0123,-0.3129 8.4715,-0.3129 0.9537,0 2.8935,0.1478 5.8251,0.4423 2.1548,0.1697 3.9323,0.2718 5.3097,0.3131 0.1777,-0.379 0.2554,-0.6995 0.2554,-0.9495 0,-0.2101 -0.054,-0.4547 -0.1617,-0.748 -0.7063,-0.3337 -1.7655,-0.7379 -3.1779,-1.1988 -2.2606,-0.7542 -3.6197,-1.4247 -4.079,-2.0114 -0.4585,-0.6286 -0.6705,-1.7161 -0.6356,-3.2665 l 0.1618,-19.1722 -0.042,-9.7589 c 6.009,-0.042 12.0713,-0.042 13.5886,-0.1358 0.383,-0.082 0.7376,-0.3379 1.0539,-0.7564 0,-0.379 -0.1937,-0.7942 -0.5795,-1.255 l -2.9526,-0.5072 c -0.7634,-0.042 -1.3734,-0.086 -1.8183,-0.1278 -5.4703,-0.3337 -8.8416,-0.8337 -10.1132,-1.5049 -0.9539,-0.4605 -2.4456,-2.6211 -4.4808,-6.4762 -0.9545,-1.8857 -2.3559,-4.2692 -4.2,-7.1604 l -4.9558,-7.9246 c -0.6995,-1.1316 -1.4661,-2.3681 -2.2928,-3.709 l -14.7877,-22.503 -2.8557,0 z m 5.5351,11.4403 c 2.4801,3.101 4.7715,6.3123 6.8709,9.6226 2.0987,3.3102 5.1814,8.5248 9.2521,15.648 1.1448,2.0115 2.2249,4.507 3.2423,7.4823 0.1937,0.5865 0.2883,1.0853 0.2883,1.5043 0,0.503 -0.4453,1.0467 -1.3355,1.6332 -0.8271,0.6286 -2.2532,1.1358 -4.2881,1.5126 -0.4453,0.042 -3.3385,0.3543 -8.6812,0.9414 -0.4449,0.1697 -0.865,0.3995 -1.247,0.6919 l 0,0.4988 c 0,0.2101 0.042,0.4845 0.094,0.8207 1.5267,0.1278 2.6395,0.1857 3.339,0.1857 l 11.2554,-0.058 c 0.498,0 2.3026,-0.4876 3.5478,0.1198 0.8585,0.4194 0.062,18.5148 -0.066,27.7402 0,1.9278 -0.3005,3.3358 -0.9007,4.216 -0.3543,0.5879 -1.0987,1.0056 -2.229,1.2552 -3.69,0.2512 -7.4405,0.3461 -11.2072,0.379 -0.2388,-0.3296 -0.3624,-0.8193 -0.3624,-1.4966 -0.042,-1.195 -0.05,-4.4706 -0.05,-9.8234 0,-1.0708 0.054,-1.7397 0.1438,-2.0033 0.078,-0.1857 0.2844,-0.3954 0.6274,-0.6278 0.3255,-0.247 1.0298,-0.4907 2.1161,-0.7403 l 0.042,0 -0.042,-0.6755 c -1.0084,-0.2965 -1.5476,-0.4601 -1.625,-0.507 -0.5586,-0.2472 -1.1411,-0.629 -1.7461,-1.1422 -0.6204,-0.512 -1.1416,-1.0859 -1.5608,-1.7219 -0.1857,-0.042 -0.3336,-0.05 -0.4425,-0.05 l -0.2801,0.042 c -0.062,0.7446 -0.1,1.2836 -0.1,1.625 0,0 0,0.1398 0,0.1678 -3.1153,-0.078 -6.1565,0 -9.2764,0.1038 -0.086,-0.07 -0.1598,-0.094 -0.2513,-0.1697 -0.6208,-0.512 -1.1418,-1.0857 -1.5607,-1.7217 -0.1857,-0.042 -0.3337,-0.05 -0.4429,-0.05 l -0.2802,0.042 c -0.062,0.7446 -0.086,1.2834 -0.086,1.6248 0,0.078 0,0.4244 0.042,1.046 l 0,1.2391 -0.042,6.7015 0.074,7.0963 c 0,0.2306 0,0.4119 -0.042,0.5872 -4.0536,-0.2799 -8.0901,-0.638 -12.0599,-1.1663 -1.6806,-0.2225 -2.1724,-2.2884 -2.1724,-4.2162 -0.2718,-11.2624 -2.8192,-26.2509 -0.2266,-27.4908 2.154,-1.0296 10.4913,-0.074 10.4913,-0.074 1.4631,-0.1697 2.6417,-0.2635 3.5319,-0.3047 0.379,-0.082 0.7257,-0.3131 1.0458,-0.6921 0,-0.4189 -0.1897,-0.8581 -0.571,-1.3193 -1.0817,-0.2101 -2.1939,-0.3379 -3.3389,-0.379 -4.7702,-0.3337 -8.7761,-0.8194 -12.0196,-1.448 -0.4453,-0.21 -0.6674,-0.4177 -0.6682,-0.6278 0,-0.4193 0.3132,-1.0667 0.9496,-1.9467 0.1278,-0.2101 0.4147,-0.7155 0.8608,-1.5125 l 9.5419,-15.0851 c 4.2601,-6.9116 8.2021,-12.7321 11.8266,-17.4667 z m 3.7088,59.4072 c 0.5398,0 0.7321,0.05 1.0056,0.078 l -0.042,6.5569 0.07,7.0963 c 0.042,0.4637 -0.058,0.7888 -0.1937,1.0298 -2.8847,-0.042 -5.7634,-0.1119 -8.6489,-0.2636 -0.1357,-0.3131 -0.2264,-0.6925 -0.2264,-1.2065 -0.042,-1.1952 -0.05,-4.4706 -0.05,-9.8236 0,-1.0706 0.05,-1.7395 0.1437,-2.0033 0.078,-0.1857 0.2842,-0.3954 0.6279,-0.6276 0.3255,-0.2472 1.0298,-0.4907 2.1157,-0.7403 l 0.05,0 c 3.2175,0 1.9238,-0.078 5.1411,-0.078 z"
       id="path4008" />
    <path
       id="path4010"
       d="m -6882.2469,2190.7103 q 0,-0.3173 0.243,-0.5499 0.2515,-0.2307 0.5985,-0.2307 0.3584,0 0.6274,0.2594 0.272,0.2596 0.272,0.56 0,0.3007 -0.272,0.5697 -0.2717,0.2594 -0.6274,0.2594 -0.3582,0 -0.5985,-0.2431 -0.243,-0.243 -0.243,-0.6278 z"
       style="font-style:normal;font-variant:normal;font-weight:normal;font-stretch:normal;font-size:medium;line-height:125%;font-family:Garamond;-inkscape-font-specification:Garamond;text-align:center;letter-spacing:0px;word-spacing:0px;text-anchor:middle;fill:#000000;fill-opacity:1;stroke:none;stroke-width:1px;stroke-linecap:butt;stroke-linejoin:miter;stroke-opacity:1" />
  </g>
</svg>
